<svg id="Layer_1" data-name="Layer 1" xmlns="http://www.w3.org/2000/svg" viewBox="0 0 51.93 56.65"><defs><style>.cls-1{fill:#fff;}</style></defs><title>user</title><path class="cls-1" d="M53.68,47.24a9.19,9.19,0,0,1-2.69,7,10,10,0,0,1-7.16,2.56H11.6a9.94,9.94,0,0,1-7.16-2.56,9.19,9.19,0,0,1-2.69-7q0-2,.13-3.82a37.56,37.56,0,0,1,.52-4,31.36,31.36,0,0,1,1-4A19,19,0,0,1,5,31.8a13,13,0,0,1,2.29-3,9.64,9.64,0,0,1,3.15-2,11.12,11.12,0,0,1,4.11-.74,4.56,4.56,0,0,1,1.55.79l2.75,1.77a17.37,17.37,0,0,0,4,1.77,15.73,15.73,0,0,0,9.85,0,17.42,17.42,0,0,0,4-1.77l2.75-1.77a4.51,4.51,0,0,1,1.55-.79,11.13,11.13,0,0,1,4.11.74,9.65,9.65,0,0,1,3.15,2,13,13,0,0,1,2.29,3,19,19,0,0,1,1.58,3.6,31.35,31.35,0,0,1,1,4,37.56,37.56,0,0,1,.52,4Q53.68,45.28,53.68,47.24Zm-16-42.95a13.64,13.64,0,0,1,4.15,10,13.64,13.64,0,0,1-4.15,10,13.63,13.63,0,0,1-10,4.15,13.64,13.64,0,0,1-10-4.15,13.65,13.65,0,0,1-4.15-10,13.65,13.65,0,0,1,4.15-10,13.65,13.65,0,0,1,10-4.15A13.64,13.64,0,0,1,37.73,4.29Z" transform="translate(-1.75 -0.14)"/></svg>